<svg width="79" height="72" viewBox="0 0 79 72" fill="none" xmlns="http://www.w3.org/2000/svg">
<g clip-path="url(#clip0_2012_952)">
<path d="M20.8949 0C33.0396 0 45.1826 0 57.3273 0C57.4152 0.0557746 57.4964 0.141972 57.5927 0.163944C59.3269 0.569577 60.4189 1.63775 60.7164 3.39042C60.8702 4.29465 60.8634 5.23775 60.8313 6.16056C60.8093 6.7893 61.0325 7.09521 61.5852 7.37408C66.296 9.74704 70.9933 12.147 75.6872 14.5521C78.1365 15.8062 78.723 17.6755 77.4688 20.1414C72.0565 30.7859 66.6391 41.427 61.2454 52.08C61.0037 52.5566 60.8702 53.1431 60.8651 53.6789C60.8279 58.3251 60.8381 62.9696 60.8195 67.6158C60.811 69.627 59.7766 71.1194 58.0288 71.6975C57.6874 71.8107 57.3358 71.8986 56.9893 71.9983H21.2313C21.1569 71.9594 21.0876 71.902 21.0098 71.8851C18.5031 71.3172 17.4044 69.9431 17.3977 67.3623C17.3875 62.8293 17.3926 58.2946 17.3487 53.7617C17.3436 53.1718 17.1948 52.5296 16.9295 52.0056C11.5273 41.3273 6.09473 30.6625 0.673979 19.9927C-0.477107 17.7262 0.153371 15.7825 2.393 14.64C6.59337 12.4969 10.7464 10.2541 15.0127 8.25296C16.8128 7.40958 17.8372 6.44282 17.3723 4.37915C17.3419 4.24563 17.3605 4.0969 17.3723 3.95831C17.5295 2.35437 18.2766 1.14592 19.7506 0.441127C20.1174 0.265352 20.5112 0.145352 20.8932 0L20.8949 0ZM19.9111 59.2715H58.3094V10.6073H19.9111V59.2715ZM19.8689 61.8744C19.8689 63.6963 19.8689 65.4372 19.8689 67.178C19.8689 69.0152 20.3236 69.4715 22.1558 69.4715C33.4537 69.4715 44.7516 69.4715 56.0495 69.4715C56.3301 69.4715 56.6157 69.4918 56.8912 69.453C57.6705 69.3448 58.2824 68.9053 58.3094 68.1228C58.3787 66.0524 58.3331 63.9786 58.3331 61.8761H19.8689V61.8744ZM19.879 8.05014H58.3449C58.3449 6.95155 58.3449 5.91211 58.3449 4.87437C58.3449 3 57.8885 2.54704 56.0038 2.54704C44.7381 2.54704 33.474 2.54704 22.2082 2.54704C21.8989 2.54704 21.5845 2.52845 21.2837 2.58085C20.4706 2.72113 19.9331 3.22141 19.8959 4.04113C19.8334 5.35606 19.879 6.67775 19.879 8.04845V8.05014ZM73.0166 23.4879C68.9379 21.4073 64.9556 19.3741 60.9074 17.3087V47.018L61.0358 47.0535C65.0148 39.2282 68.992 31.4045 73.0166 23.4896V23.4879ZM5.20733 23.4913C9.22852 31.3994 13.2108 39.2299 17.1932 47.0603C17.2303 47.0383 17.2692 47.018 17.3064 46.9961V17.3189C13.2261 19.4011 9.24205 21.4327 5.20733 23.493V23.4913ZM60.8499 9.75211C60.8499 11.3087 60.8347 12.7386 60.8685 14.1651C60.8736 14.3544 61.0798 14.618 61.2623 14.7127C65.5269 16.9082 69.8 19.0834 74.1187 21.2873C74.4821 20.5859 74.832 19.9183 75.1734 19.249C75.9729 17.6823 75.8782 17.4 74.2826 16.587C70.5826 14.7025 66.8808 12.818 63.1808 10.9352C62.4388 10.5566 61.695 10.1814 60.8499 9.75211ZM17.3673 9.76225C15.8156 10.5499 14.3738 11.2783 12.9336 12.0118C9.78463 13.6158 6.63562 15.2197 3.49 16.8304C2.58907 17.2918 2.34398 17.7515 2.68204 18.4885C3.11137 19.4299 3.6117 20.3375 4.10019 21.2992C8.41888 19.0935 12.6919 16.9166 16.9548 14.7211C17.1374 14.6265 17.3453 14.3628 17.3504 14.1718C17.3842 12.747 17.3689 11.3189 17.3689 9.76225H17.3673Z" fill="#E72176"></path>
<path d="M39.0924 64.4043C40.4953 64.4043 41.8983 64.3958 43.3012 64.4077C44.1565 64.4144 44.6484 64.8319 44.6889 65.5451C44.7312 66.3057 44.2495 66.8516 43.3773 66.8601C40.5443 66.8888 37.7097 66.8871 34.8768 66.8634C33.9928 66.855 33.5077 66.3378 33.5313 65.5789C33.555 64.8268 34.052 64.4127 34.9681 64.406C36.3423 64.3975 37.7182 64.4043 39.0924 64.4043Z" fill="#E72176"></path>
<g clip-path="url(#clip1_2012_952)">
<path d="M48.5893 35.4067C47.894 40.077 43.3797 43.3204 38.5127 42.6537C35.7652 42.2768 33.3569 40.6954 31.9999 38.3731C31.4625 37.4552 31.1064 36.4503 30.9486 35.4067H27.1094C27.9659 42.0256 34.257 46.7281 41.1595 45.9067C46.8863 45.2271 51.4007 40.8983 52.1094 35.4067H48.5893Z" fill="#E72176"></path>
<path d="M37.9451 28.3786H35.0632V25.9501C34.3511 25.7214 33.6054 25.6055 32.853 25.6055V28.369H30.3305C30.0887 29.0518 29.9678 29.7668 29.9678 30.4883H32.8497V32.9394C33.5618 33.168 34.3074 33.284 35.0598 33.284V30.5237H37.5823C37.8208 29.8409 37.9417 29.1259 37.9417 28.4044C37.9417 28.4044 37.9484 28.3786 37.9417 28.3786H37.9451Z" fill="#E72176"></path>
<path d="M49.2981 29.4703C49.4627 31.7765 47.6455 33.7766 45.2372 33.9312C42.8323 34.089 40.7464 32.3466 40.5852 30.0372C40.5717 29.8472 40.5717 29.6571 40.5852 29.4671C40.4206 27.1642 42.2377 25.1673 44.646 25.0094C47.051 24.8516 49.1368 26.5941 49.2981 28.9035C49.3115 29.0935 49.3115 29.2835 49.2981 29.4736V29.4703ZM41.6835 29.4703C41.6264 31.1935 43.0372 32.6364 44.8341 32.6944C46.6311 32.7492 48.1359 31.3964 48.1964 29.6732C48.1964 29.6056 48.1964 29.538 48.1964 29.4736C48.2535 27.7504 46.8427 26.3074 45.0458 26.2495C43.2488 26.1947 41.744 27.5475 41.6835 29.2706C41.6835 29.3383 41.6835 29.4027 41.6835 29.4703Z" fill="white"></path>
<g clip-path="url(#clip2_2012_952)">
<path d="M66.0594 35.3101C63.9894 49.8101 50.5494 59.8801 36.0594 57.8101C27.8794 56.6401 20.7094 51.7301 16.6694 44.5201C15.0694 41.6701 14.0094 38.5501 13.5394 35.3101H2.10938C4.65937 55.8601 23.3894 70.4601 43.9394 67.9101C60.9894 65.8001 74.4294 52.3601 76.5394 35.3101H66.0594Z" fill="#E72176"></path>
<path d="M34.3694 13.4899H25.7894V5.94988C23.6694 5.23988 21.4494 4.87988 19.2094 4.87988V13.4599H11.6994C10.9794 15.5799 10.6194 17.7999 10.6194 20.0399H19.1994V27.6499C21.3194 28.3599 23.5394 28.7199 25.7794 28.7199V20.1499H33.2894C33.9994 18.0299 34.3594 15.8099 34.3594 13.5699C34.3594 13.5699 34.3794 13.4899 34.3594 13.4899H34.3694Z" fill="#E72176"></path>
</g>
</g>
</g>
<defs>
<clipPath id="clip0_2012_952">
<rect width="78" height="72" fill="white" transform="translate(0.109375)"></rect>
</clipPath>
<clipPath id="clip1_2012_952">
<rect width="25" height="21" fill="white" transform="translate(27.1094 25)"></rect>
</clipPath>
<clipPath id="clip2_2012_952">
<rect width="74.43" height="65.2" fill="white" transform="translate(2.10938 3)"></rect>
</clipPath>
</defs>
</svg>
